<?xml version="1.0" standalone="no"?>
<!DOCTYPE svg PUBLIC "-//W3C//DTD SVG 20010904//EN"
 "http://www.w3.org/TR/2001/REC-SVG-20010904/DTD/svg10.dtd">
<svg version="1.0" xmlns="http://www.w3.org/2000/svg"
 width="1500.000000pt" height="1500.000000pt" viewBox="0 0 1500.000000 1500.000000"
 preserveAspectRatio="xMidYMid meet">
<metadata>
Created by potrace 1.14, written by Peter Selinger 2001-2017
</metadata>
<g transform="translate(0.000000,1500.000000) scale(0.100000,-0.100000)"
fill="#000000" stroke="none">
<path d="M0 7500 l0 -7500 7500 0 7500 0 0 7500 0 7500 -7500 0 -7500 0 0
-7500z m7919 2034 c7 -7 -29 -51 -131 -159 -58 -60 -127 -135 -154 -165 -27
-30 -130 -138 -230 -240 -99 -102 -234 -241 -300 -310 -65 -69 -244 -251 -396
-405 -152 -154 -336 -341 -408 -415 -73 -74 -236 -241 -363 -370 -128 -129
-329 -336 -447 -459 -118 -124 -223 -231 -232 -240 -10 -8 -18 -24 -18 -34 0
-17 22 -17 471 -15 l471 3 161 165 c130 133 496 516 542 566 5 6 134 137 285
290 151 154 358 367 460 474 211 223 533 552 664 679 49 47 132 129 184 181
51 52 166 168 255 258 89 90 171 169 182 175 14 9 133 13 403 15 l383 3 -11
-21 c-6 -12 -64 -76 -129 -143 -233 -243 -253 -266 -247 -279 10 -21 87 -134
131 -193 39 -53 152 -213 175 -250 8 -13 38 -56 65 -96 28 -39 54 -79 60 -88
5 -9 21 -32 35 -51 14 -19 30 -42 35 -52 6 -9 37 -56 70 -103 33 -48 67 -97
75 -109 8 -13 38 -56 65 -95 28 -40 57 -83 65 -96 8 -13 38 -56 65 -96 28 -39
57 -82 65 -95 14 -22 103 -151 254 -372 39 -57 78 -114 86 -127 8 -13 38 -56
65 -96 28 -39 57 -82 65 -95 8 -12 42 -61 75 -109 33 -47 65 -94 70 -103 6 -9
22 -33 38 -53 15 -20 27 -49 27 -64 l0 -28 -70 7 c-38 3 -182 3 -320 -1 -278
-7 -271 -5 -228 -73 12 -19 27 -43 33 -52 5 -9 46 -69 90 -134 44 -64 87 -127
95 -140 8 -12 41 -60 72 -106 31 -45 58 -89 60 -96 2 -10 -389 -13 -2106 -12
l-2109 1 -203 -205 -203 -205 -393 -1 c-216 0 -399 -1 -406 0 -8 0 -12 4 -10
9 2 6 86 94 187 196 120 122 181 189 174 196 -6 6 -183 9 -484 7 l-474 -3
-136 -140 c-74 -77 -160 -166 -189 -198 -30 -33 -66 -65 -80 -72 -28 -14 -373
-30 -645 -30 -158 0 -160 0 -160 22 0 21 187 228 318 352 26 25 47 51 47 58 0
10 -37 13 -162 14 -160 1 -248 13 -255 35 -3 10 279 288 486 480 102 95 96 93
329 94 219 0 240 4 281 56 27 35 366 386 621 644 334 338 533 542 750 769 113
117 263 273 334 345 122 125 483 498 686 710 52 54 140 144 195 200 l100 101
395 -3 c217 -2 397 -5 399 -8z m-602 -3581 c2 -6 -35 -53 -84 -102 l-87 -91
-112 0 c-61 0 -114 3 -117 6 -4 4 20 38 53 75 32 38 63 75 67 82 24 39 56 48
167 45 73 -2 111 -7 113 -15z m2893 1 c15 -9 35 -30 45 -47 10 -16 40 -54 66
-83 69 -77 62 -88 -55 -80 -50 3 -723 9 -1496 12 -773 3 -1408 9 -1412 13 -8
7 146 173 177 190 14 7 414 10 1333 11 1199 0 1316 -1 1342 -16z"/>
<path d="M8815 8596 c-33 -35 -136 -143 -230 -242 -93 -98 -256 -267 -362
-374 -350 -356 -557 -570 -727 -750 -60 -63 -192 -199 -293 -302 -102 -103
-182 -192 -178 -198 7 -11 2543 -15 2928 -3 208 6 227 8 227 24 0 16 -28 60
-218 337 -42 63 -84 124 -92 137 -8 13 -37 56 -65 96 -27 39 -57 82 -65 95
-29 44 -171 250 -220 319 -27 39 -55 80 -62 92 -7 12 -49 75 -93 138 -44 64
-87 127 -95 140 -8 13 -42 62 -75 110 -33 47 -67 97 -75 109 -8 13 -37 55 -65
95 -27 40 -56 82 -63 94 -25 44 -98 141 -107 143 -6 1 -37 -26 -70 -60z m82
-436 c56 -82 129 -177 156 -205 15 -17 27 -35 27 -41 0 -5 14 -23 31 -40 17
-16 40 -44 51 -62 11 -19 34 -48 49 -65 16 -17 29 -35 29 -40 0 -5 16 -28 35
-51 19 -24 35 -47 35 -52 0 -5 13 -24 29 -42 16 -17 32 -40 36 -51 3 -10 16
-30 29 -44 13 -14 34 -42 46 -63 13 -22 27 -41 30 -44 3 -3 17 -23 30 -45 13
-22 29 -45 35 -51 5 -6 17 -22 25 -34 8 -13 30 -43 48 -67 17 -24 32 -46 32
-49 0 -3 13 -23 29 -43 27 -34 61 -93 61 -106 0 -3 -88 -5 -196 -5 -226 0
-227 0 -293 98 -20 32 -53 80 -71 107 -18 28 -42 58 -52 68 -10 10 -18 23 -18
30 0 7 -13 26 -28 44 -15 18 -45 60 -67 94 -22 34 -47 71 -55 84 -56 83 -77
112 -93 130 -10 11 -25 32 -33 48 -8 15 -18 27 -23 27 -5 0 -48 -41 -97 -92
-49 -51 -140 -144 -201 -207 -62 -62 -110 -118 -107 -122 3 -5 97 -9 210 -9
157 0 204 -3 203 -12 0 -7 -32 -40 -71 -73 -39 -33 -102 -89 -141 -125 -38
-35 -84 -70 -102 -76 -21 -7 -180 -14 -432 -18 -349 -7 -401 -6 -412 7 -10 13
1 30 71 104 46 48 119 133 162 188 45 57 234 255 440 460 425 424 490 485 516
485 11 0 31 -17 47 -40z"/>
</g>
</svg>
